<svg width="30" height="30" viewBox="0 0 30 30" fill="none" xmlns="http://www.w3.org/2000/svg">
<path d="M29.2466 14.9664C29.2466 22.6649 22.9004 28.9196 15.0547 28.9196C7.20897 28.9196 0.862793 22.6649 0.862793 14.9664C0.862793 7.26794 7.20897 1.01318 15.0547 1.01318C22.9004 1.01318 29.2466 7.26794 29.2466 14.9664Z" fill="white" stroke="#294278"/>
<path d="M27.0552 15.0414C27.0272 12.7546 26.3462 10.5235 25.0925 8.61082C23.8388 6.69811 22.0647 5.18346 19.9791 4.24525C17.8934 3.30705 15.5831 2.98437 13.3202 3.31519C11.0573 3.64603 8.9361 4.61659 7.20634 6.11262C5.47657 7.60863 4.21032 9.56778 3.55669 11.7593C2.90308 13.9509 2.88931 16.2835 3.51703 18.4827C4.14475 20.6818 5.3878 22.6557 7.0998 24.172C8.81178 25.6884 10.9214 26.6839 13.1802 27.0414V18.5364H10.1803V15.0414H13.1802V12.3864C13.1108 11.7691 13.1777 11.144 13.3763 10.5554C13.5749 9.9667 13.9002 9.4288 14.3294 8.97963C14.7585 8.53044 15.281 8.18092 15.86 7.95576C16.439 7.73058 17.0604 7.63522 17.6802 7.67644C18.5799 7.68876 19.4775 7.76899 20.3652 7.91644V10.9164H18.8652C18.6066 10.8838 18.3438 10.9097 18.0966 10.9923C17.8493 11.0748 17.6237 11.2119 17.4365 11.3933C17.2493 11.5748 17.1053 11.796 17.0151 12.0405C16.9248 12.2851 16.8908 12.5469 16.9152 12.8064V15.0714H20.2452L19.7052 18.5664H16.9302V26.9664C19.7651 26.518 22.3454 25.0684 24.203 22.8805C26.0606 20.6926 27.0725 17.9115 27.0552 15.0414Z" fill="#294278"/>
</svg>
