<svg width="30" height="29" viewBox="0 0 30 29" fill="none" xmlns="http://www.w3.org/2000/svg">
<path d="M29.0972 14.5133C29.0972 22.2118 22.751 28.4666 14.9053 28.4666C7.05955 28.4666 0.713379 22.2118 0.713379 14.5133C0.713379 6.81488 7.05955 0.56012 14.9053 0.56012C22.751 0.56012 29.0972 6.81488 29.0972 14.5133Z" fill="white" stroke="#294278"/>
<g clip-path="url(#clip0_162_7)">
<path d="M9.69859 23.8418C8.44971 23.7904 7.77128 23.6024 7.32004 23.4431C6.72213 23.2325 6.29585 22.9818 5.8471 22.5763C5.39835 22.1709 5.12062 21.7852 4.88906 21.2442C4.71306 20.836 4.50523 20.2222 4.44843 19.0922C4.38602 17.8708 4.37354 17.5043 4.37354 14.4098C4.37354 11.3154 4.38727 10.9494 4.44781 9.7269C4.5046 8.59696 4.71368 7.98428 4.88844 7.57488C5.12124 7.03391 5.39898 6.64823 5.84647 6.24166C6.2946 5.83621 6.72088 5.58436 7.31941 5.37486C7.77066 5.21562 8.44908 5.02758 9.69796 4.97619C11.0486 4.92029 11.4543 4.909 14.8732 4.909C18.2934 4.909 18.6979 4.92142 20.0491 4.97619C21.298 5.02758 21.9752 5.21675 22.4277 5.37486C23.0256 5.58436 23.4518 5.83621 23.9006 6.24166C24.3493 6.6471 24.6258 7.03335 24.8586 7.57432C25.0346 7.98258 25.2425 8.5964 25.2993 9.72634C25.3611 10.9489 25.3735 11.3148 25.3735 14.4093C25.3735 17.5026 25.3611 17.8697 25.2993 19.0922C25.2425 20.2222 25.0334 20.836 24.8586 21.2442C24.6258 21.7852 24.3487 22.1709 23.9006 22.5763C23.4525 22.9818 23.0256 23.2325 22.4277 23.4431C21.9764 23.6024 21.298 23.7904 20.0491 23.8418C18.6991 23.8977 18.2934 23.909 14.8732 23.909C11.4543 23.909 11.0486 23.8983 9.69859 23.8418Z" fill="#294278"/>
<path d="M9.69859 23.8418C8.44971 23.7904 7.77128 23.6024 7.32004 23.4431C6.72213 23.2325 6.29585 22.9818 5.8471 22.5763C5.39835 22.1709 5.12062 21.7852 4.88906 21.2442C4.71306 20.836 4.50523 20.2222 4.44843 19.0922C4.38602 17.8708 4.37354 17.5043 4.37354 14.4098C4.37354 11.3154 4.38727 10.9494 4.44781 9.7269C4.5046 8.59696 4.71368 7.98428 4.88844 7.57488C5.12124 7.03391 5.39898 6.64823 5.84647 6.24166C6.2946 5.83621 6.72088 5.58436 7.31941 5.37486C7.77066 5.21562 8.44908 5.02758 9.69796 4.97619C11.0486 4.92029 11.4543 4.909 14.8732 4.909C18.2934 4.909 18.6979 4.92142 20.0491 4.97619C21.298 5.02758 21.9752 5.21675 22.4277 5.37486C23.0256 5.58436 23.4518 5.83621 23.9006 6.24166C24.3493 6.6471 24.6258 7.03335 24.8586 7.57432C25.0346 7.98258 25.2425 8.5964 25.2993 9.72634C25.3611 10.9489 25.3735 11.3148 25.3735 14.4093C25.3735 17.5026 25.3611 17.8697 25.2993 19.0922C25.2425 20.2222 25.0334 20.836 24.8586 21.2442C24.6258 21.7852 24.3487 22.1709 23.9006 22.5763C23.4525 22.9818 23.0256 23.2325 22.4277 23.4431C21.9764 23.6024 21.298 23.7904 20.0491 23.8418C18.6991 23.8977 18.2934 23.909 14.8732 23.909C11.4543 23.909 11.0486 23.8983 9.69859 23.8418Z" fill="#294278"/>
<path d="M12.2952 14.4494C12.2952 13.15 13.4592 12.0964 14.8953 12.0964C16.3315 12.0964 17.4961 13.15 17.4961 14.4494C17.4961 15.7488 16.3315 16.8025 14.8953 16.8025C13.4592 16.8025 12.2952 15.7488 12.2952 14.4494ZM10.8893 14.4494C10.8893 16.4513 12.6828 18.0739 14.8953 18.0739C17.1079 18.0739 18.9014 16.4513 18.9014 14.4494C18.9014 12.4476 17.1079 10.825 14.8953 10.825C12.6828 10.825 10.8894 12.4475 10.8894 14.4494M18.1238 10.6812C18.1237 10.8488 18.1786 11.0126 18.2814 11.1519C18.3842 11.2912 18.5304 11.3998 18.7014 11.464C18.8724 11.5282 19.0607 11.545 19.2423 11.5124C19.4239 11.4798 19.5908 11.3992 19.7217 11.2808C19.8527 11.1623 19.9419 11.0115 19.9781 10.8472C20.0143 10.6829 19.9959 10.5125 19.9251 10.3577C19.8543 10.2029 19.7344 10.0706 19.5804 9.97749C19.4265 9.88436 19.2455 9.83462 19.0604 9.83455H19.06C18.8118 9.83465 18.5738 9.92388 18.3983 10.0826C18.2228 10.2414 18.124 10.4567 18.1238 10.6812ZM11.7435 20.195C10.9829 20.1637 10.5695 20.049 10.2947 19.9522C9.93047 19.8239 9.67058 19.6711 9.39734 19.4242C9.1241 19.1773 8.95496 18.9424 8.81378 18.6129C8.70668 18.3644 8.57998 17.9903 8.54541 17.3021C8.50758 16.558 8.50003 16.3345 8.50003 14.4496C8.50003 12.5646 8.50821 12.3417 8.54541 11.597C8.58005 10.9089 8.70768 10.5354 8.81378 10.2862C8.95558 9.95669 9.12447 9.72156 9.39734 9.47434C9.67021 9.22712 9.92985 9.07409 10.2947 8.94635C10.5693 8.84945 10.9829 8.73482 11.7435 8.70354C12.5658 8.66932 12.8129 8.66249 14.8953 8.66249C16.9778 8.66249 17.2251 8.66977 18.0481 8.70365C18.8087 8.73499 19.2215 8.85047 19.4969 8.94647C19.8611 9.0742 20.121 9.22757 20.3943 9.47445C20.6675 9.72133 20.836 9.9568 20.9778 10.2864C21.0849 10.5348 21.2116 10.909 21.2462 11.5972C21.284 12.3418 21.2916 12.5647 21.2916 14.4497C21.2916 16.3347 21.284 16.5575 21.2462 17.3022C21.2116 17.9904 21.0842 18.3644 20.9778 18.613C20.836 18.9425 20.6671 19.1777 20.3943 19.4243C20.1214 19.671 19.8611 19.824 19.4969 19.9523C19.2223 20.0492 18.8087 20.1638 18.0481 20.1951C17.2258 20.2294 16.9787 20.2362 14.8953 20.2362C12.8119 20.2362 12.5656 20.2294 11.7435 20.1951M11.6789 7.43362C10.8484 7.46784 10.2809 7.58698 9.78524 7.76147C9.27227 7.94166 8.83744 8.18341 8.40323 8.57564C7.96903 8.96787 7.70252 9.36134 7.50336 9.82602C7.31051 10.2747 7.17882 10.7879 7.141 11.5393C7.10255 12.292 7.09375 12.5326 7.09375 14.4494C7.09375 16.3663 7.10255 16.6069 7.141 17.3596C7.17882 18.111 7.31051 18.6242 7.50336 19.0729C7.70252 19.537 7.96909 19.9312 8.40323 20.3233C8.83737 20.7153 9.27164 20.9567 9.78524 21.1374C10.2818 21.3119 10.8484 21.4311 11.6789 21.4653C12.5112 21.4995 12.7767 21.508 14.8953 21.508C17.014 21.508 17.2799 21.5001 18.1118 21.4653C18.9424 21.4311 19.5095 21.3119 20.0054 21.1374C20.5184 20.9567 20.9532 20.7155 21.3874 20.3233C21.8216 19.931 22.0876 19.537 22.2873 19.0729C22.4802 18.6242 22.6125 18.111 22.6497 17.3596C22.6875 16.6064 22.6963 16.3663 22.6963 14.4494C22.6963 12.5326 22.6875 12.292 22.6497 11.5393C22.6119 10.7879 22.4802 10.2744 22.2873 9.82602C22.0876 9.36191 21.821 8.96849 21.3874 8.57564C20.9539 8.18279 20.5184 7.94166 20.0061 7.76147C19.5095 7.58698 18.9423 7.46727 18.1124 7.43362C17.2804 7.39923 17.0146 7.39087 14.8963 7.39087C12.7779 7.39087 12.5115 7.39883 11.6792 7.43362" fill="white"/>
</g>
<defs>
<clipPath id="clip0_162_7">
<rect width="21" height="19" fill="white" transform="translate(4.37354 4.909)"/>
</clipPath>
</defs>
</svg>
