<svg width="31" height="29" viewBox="0 0 31 29" fill="none" xmlns="http://www.w3.org/2000/svg">
<path d="M29.7134 14.5341C29.7134 22.2325 23.3672 28.4873 15.5215 28.4873C7.67577 28.4873 1.32959 22.2325 1.32959 14.5341C1.32959 6.83563 7.67577 0.580872 15.5215 0.580872C23.3672 0.580872 29.7134 6.83563 29.7134 14.5341Z" fill="white" stroke="#294278"/>
<path d="M16.6117 17.1242C16.6117 17.1242 17.0418 17.1579 17.2726 16.8924L17.7246 16.3637C17.942 16.1027 18.4665 15.9362 18.9812 16.2017C19.3667 16.4065 19.741 16.6292 20.1026 16.8688C20.4433 17.1017 21.1417 17.6451 21.1441 17.6451C21.4776 17.9072 21.555 18.2908 21.3278 18.6958L21.3254 18.7048C21.0758 19.1078 20.7589 19.4712 20.3865 19.7814L20.378 19.7871C20.055 20.0383 19.7372 20.1812 19.4247 20.2157C19.3789 20.2235 19.3323 20.2265 19.2857 20.2247C19.1483 20.2257 19.0116 20.206 18.8809 20.1662L18.8701 20.1527C18.3891 20.0256 17.5868 19.7094 16.2492 19.0232C15.4756 18.6304 14.7391 18.1772 14.0476 17.6687C13.7008 17.4139 13.37 17.1409 13.0568 16.8508L13.0241 16.8204L12.9903 16.7889L12.9565 16.7586L12.9238 16.7271C12.6123 16.4355 12.319 16.1275 12.0454 15.8046C11.4992 15.1607 11.0125 14.475 10.5906 13.7548C9.85347 12.5094 9.51393 11.7636 9.37738 11.3136L9.36288 11.3046C9.32056 11.1829 9.29975 11.0556 9.30126 10.9277C9.29878 10.8844 9.30162 10.841 9.30972 10.7983C9.34838 10.5081 9.50224 10.2118 9.7713 9.90957L9.77734 9.9017C10.1104 9.55492 10.5008 9.25984 10.9337 9.02757L10.9422 9.02645C11.3772 8.81495 11.7904 8.88695 12.0708 9.1952C12.0732 9.19632 12.6556 9.8477 12.9045 10.1649C13.162 10.502 13.4011 10.8508 13.621 11.2101C13.9074 11.6882 13.7286 12.1776 13.4471 12.3801L12.8791 12.7997C12.5928 13.0157 12.6302 13.4162 12.6302 13.4162C12.6302 13.4162 13.4712 16.3783 16.6117 17.1242ZM15.5508 8.26482C15.5104 8.26438 15.4704 8.27137 15.4329 8.2854C15.3955 8.29944 15.3614 8.32023 15.3327 8.34659C15.3039 8.37294 15.281 8.40434 15.2654 8.43896C15.2497 8.47358 15.2416 8.51075 15.2414 8.54832C15.2413 8.5857 15.249 8.62274 15.2642 8.65733C15.2794 8.69192 15.3018 8.72338 15.3301 8.74991C15.3584 8.77645 15.392 8.79754 15.429 8.81198C15.4661 8.82642 15.5058 8.83392 15.5459 8.83407C17.1808 8.84532 18.5112 9.33695 19.6011 10.3258C20.6813 11.3068 21.2336 12.6399 21.2481 14.3882C21.2482 14.4256 21.2563 14.4626 21.2718 14.497C21.2873 14.5315 21.3099 14.5628 21.3384 14.5891C21.3669 14.6155 21.4007 14.6363 21.4379 14.6505C21.475 14.6646 21.5148 14.6718 21.555 14.6717C21.5952 14.6715 21.635 14.664 21.6721 14.6495C21.7093 14.635 21.7429 14.6138 21.7712 14.5871C21.7995 14.5605 21.8219 14.5289 21.837 14.4942C21.8522 14.4595 21.8598 14.4223 21.8595 14.3848C21.8438 12.5241 21.2348 11.0143 20.0276 9.91857C18.8314 8.83295 17.3186 8.27607 15.5508 8.26482ZM16.1102 9.74195C16.0701 9.73919 16.0299 9.74381 15.9917 9.75555C15.9536 9.76729 15.9183 9.78592 15.8879 9.81037C15.8575 9.83482 15.8325 9.86461 15.8145 9.89804C15.7964 9.93147 15.7857 9.96788 15.7828 10.0052C15.7798 10.0425 15.7848 10.08 15.7974 10.1155C15.81 10.151 15.83 10.1839 15.8562 10.2122C15.8825 10.2405 15.9145 10.2637 15.9504 10.2805C15.9863 10.2973 16.0254 10.3074 16.0655 10.3101C17.2328 10.3899 18.0979 10.7454 18.7299 11.3867C19.3631 12.0313 19.6639 12.8154 19.641 13.7953C19.6402 13.8327 19.6473 13.8699 19.6619 13.9047C19.6765 13.9395 19.6984 13.9713 19.7262 13.9982C19.754 14.0252 19.7873 14.0468 19.8241 14.0618C19.8609 14.0768 19.9005 14.0848 19.9406 14.0856C20.0213 14.0871 20.0994 14.0588 20.1578 14.007C20.2162 13.9552 20.2502 13.8839 20.2524 13.8088C20.2778 12.7086 19.9189 11.7534 19.1806 11.0031C18.4351 10.2448 17.3923 9.82857 16.1114 9.74195H16.1102ZM16.5682 11.2686C16.528 11.2666 16.4878 11.272 16.4499 11.2845C16.412 11.297 16.3772 11.3164 16.3473 11.3415C16.3174 11.3666 16.2932 11.3969 16.2759 11.4307C16.2587 11.4645 16.2488 11.5012 16.2468 11.5386C16.2425 11.6139 16.2705 11.6877 16.3246 11.7438C16.3788 11.7999 16.4546 11.8338 16.5356 11.8378C17.0624 11.8637 17.4176 12.0021 17.6593 12.2327C17.8986 12.4644 18.046 12.8132 18.0738 13.3251C18.0778 13.4002 18.1137 13.4707 18.1734 13.5213C18.2332 13.5719 18.3121 13.5984 18.3928 13.5951C18.4732 13.5913 18.5488 13.5581 18.6031 13.5027C18.6574 13.4473 18.686 13.3741 18.6828 13.2992C18.6501 12.6951 18.4653 12.1922 18.0979 11.8367C17.7294 11.4834 17.2001 11.2989 16.5682 11.2686ZM24.5867 6.43107C23.9861 5.91582 21.5586 4.27557 16.1525 4.25307C16.1525 4.25307 9.77855 3.89532 6.67072 6.5492C4.94159 8.1602 4.33259 10.5171 4.26855 13.4398C4.20451 16.3614 4.12113 21.8379 9.79063 23.3229H9.79668L9.79305 25.5898C9.79305 25.5898 9.7568 26.5067 10.4057 26.6934C11.1911 26.9207 11.6503 26.2232 12.3994 25.4717C12.8115 25.0588 13.3794 24.4536 13.8071 23.9901C17.6859 24.2938 20.668 23.5997 21.0064 23.4962C21.7894 23.2599 26.2203 22.7312 26.9393 17.2558C27.6836 11.6117 26.5804 8.04095 24.5867 6.43107ZM25.244 16.8508C24.635 21.4228 21.0414 21.7108 20.3793 21.9088C20.0977 21.9932 17.4781 22.5996 14.1841 22.3993C14.1841 22.3993 11.73 25.1556 10.9627 25.8733C10.8431 25.9858 10.7029 26.0308 10.6087 26.0083C10.4758 25.9779 10.4395 25.8328 10.4419 25.6202L10.4625 21.8548C5.66538 20.6151 5.94572 15.9531 6.00009 13.5129C6.05447 11.0717 6.54747 9.07257 8.01076 7.72707C10.6389 5.51082 16.0522 5.84157 16.0522 5.84157C20.6245 5.8607 22.8165 7.1432 23.324 7.57182C25.0108 8.91732 25.8711 12.1348 25.2428 16.8497L25.244 16.8508Z" fill="#294278"/>
</svg>
