<svg width="30" height="30" viewBox="0 0 30 30" fill="none" xmlns="http://www.w3.org/2000/svg">
<path d="M29.2466 15.0085C29.2466 22.707 22.9004 28.9617 15.0547 28.9617C7.20897 28.9617 0.862793 22.707 0.862793 15.0085C0.862793 7.31005 7.20897 1.0553 15.0547 1.0553C22.9004 1.0553 29.2466 7.31005 29.2466 15.0085Z" fill="white" stroke="#294278"/>
<g clip-path="url(#clip0_162_5)">
<rect x="4.70361" y="7.52136" width="19.8501" height="14.6309" fill="#294278"/>
<path fill-rule="evenodd" clip-rule="evenodd" d="M13.0615 10.5839C12.8015 10.4293 12.4821 10.4305 12.2231 10.5868C11.9641 10.7431 11.8047 11.0309 11.8047 11.3424V18.3313C11.8047 18.6427 11.9641 18.9306 12.2231 19.0869C12.4821 19.2432 12.8015 19.2443 13.0615 19.0897L18.9419 15.5953C19.2037 15.4398 19.3652 15.1504 19.3652 14.8368C19.3652 14.5233 19.2037 14.2339 18.9419 14.0783L13.0615 10.5839ZM13.4848 14.1704V16.8259V12.8478V14.1704Z" fill="white"/>
<path fill-rule="evenodd" clip-rule="evenodd" d="M3.37354 14.9089C3.37354 11.1592 3.37354 9.28434 4.28866 7.97001C4.58421 7.54554 4.94194 7.17225 5.34873 6.86385C6.60829 5.90894 8.40504 5.90894 11.9985 5.90894H17.7485C21.342 5.90894 23.1388 5.90894 24.3983 6.86385C24.8051 7.17225 25.1629 7.54554 25.4584 7.97001C26.3735 9.28434 26.3735 11.1592 26.3735 14.9089C26.3735 18.6586 26.3735 20.5335 25.4584 21.8478C25.1629 22.2723 24.8051 22.6456 24.3983 22.954C23.1388 23.9089 21.342 23.9089 17.7485 23.9089H11.9985C8.40504 23.9089 6.60829 23.9089 5.34873 22.954C4.94194 22.6456 4.58421 22.2723 4.28866 21.8478C3.37354 20.5335 3.37354 18.6586 3.37354 14.9089ZM11.9985 7.90894H17.7485C19.588 7.90894 20.8136 7.91169 21.7422 8.01667C22.635 8.1176 23.0232 8.29342 23.2718 8.48189C23.5158 8.66693 23.7305 8.8909 23.9078 9.14558C24.0884 9.40499 24.2569 9.81007 24.3537 10.7416C24.4543 11.7106 24.4569 12.9895 24.4569 14.9089C24.4569 16.8283 24.4543 18.1072 24.3537 19.0762C24.2569 20.0078 24.0884 20.4129 23.9078 20.6723C23.7305 20.9269 23.5158 21.1509 23.2718 21.336C23.0232 21.5244 22.635 21.7002 21.7422 21.8012C20.8136 21.9062 19.588 21.9089 17.7485 21.9089H11.9985C10.1591 21.9089 8.93347 21.9062 8.00486 21.8012C7.11212 21.7002 6.72392 21.5244 6.47532 21.336C6.23125 21.1509 6.01661 20.9269 5.83928 20.6723C5.65866 20.4129 5.49017 20.0078 5.39344 19.0762C5.29284 18.1072 5.2902 16.8283 5.2902 14.9089C5.2902 12.9895 5.29284 11.7106 5.39344 10.7416C5.49017 9.81007 5.65866 9.40499 5.83928 9.14558C6.01661 8.8909 6.23125 8.66693 6.47532 8.48189C6.72392 8.29342 7.11212 8.1176 8.00486 8.01667C8.93347 7.91169 10.1591 7.90894 11.9985 7.90894Z" fill="#294278"/>
</g>
<defs>
<clipPath id="clip0_162_5">
<rect width="23" height="24" fill="white" transform="translate(3.37354 2.90894)"/>
</clipPath>
</defs>
</svg>
